<?xml version="1.0" encoding="UTF-8" standalone="no"?>
<!DOCTYPE svg PUBLIC "-//W3C//DTD SVG 1.1//EN"
 "http://www.w3.org/Graphics/SVG/1.1/DTD/svg11.dtd">
<!-- Generated by graphviz version 2.30.1 (20180420.1509)
 -->
<!-- Title: snakemake_dag Pages: 1 -->
<svg width="815pt" height="476pt"
 viewBox="0.00 0.00 815.00 476.00" xmlns="http://www.w3.org/2000/svg" xmlns:xlink="http://www.w3.org/1999/xlink">
<g id="graph0" class="graph" transform="scale(1 1) rotate(0) translate(4 472)">
<title>snakemake_dag</title>
<polygon fill="white" stroke="white" points="-4,5 -4,-472 812,-472 812,5 -4,5"/>
<!-- 0 -->
<g id="node1" class="node"><title>0</title>
<path fill="none" stroke="#70d856" stroke-width="2" d="M342,-36C342,-36 312,-36 312,-36 306,-36 300,-30 300,-24 300,-24 300,-12 300,-12 300,-6 306,-0 312,-0 312,-0 342,-0 342,-0 348,-0 354,-6 354,-12 354,-12 354,-24 354,-24 354,-30 348,-36 342,-36"/>
<text text-anchor="middle" x="327" y="-15.5" font-family="sans" font-size="10.00">all</text>
</g>
<!-- 1 -->
<g id="node2" class="node"><title>1</title>
<path fill="none" stroke="#56d89a" stroke-width="2" d="M110,-180C110,-180 12,-180 12,-180 6,-180 -7.10543e-15,-174 -7.10543e-15,-168 -7.10543e-15,-168 -7.10543e-15,-156 -7.10543e-15,-156 -7.10543e-15,-150 6,-144 12,-144 12,-144 110,-144 110,-144 116,-144 122,-150 122,-156 122,-156 122,-168 122,-168 122,-174 116,-180 110,-180"/>
<text text-anchor="middle" x="61" y="-159.5" font-family="sans" font-size="10.00">subsample16SShared</text>
</g>
<!-- 1&#45;&gt;0 -->
<g id="edge1" class="edge"><title>1&#45;&gt;0</title>
<path fill="none" stroke="grey" stroke-width="2" d="M65.4111,-143.792C71.5218,-123.502 84.5548,-90.2405 108,-72 161.389,-30.4628 242.575,-20.8581 289.645,-18.9988"/>
<polygon fill="grey" stroke="grey" points="289.822,-22.4952 299.713,-18.6994 289.613,-15.4983 289.822,-22.4952"/>
</g>
<!-- 2 -->
<g id="node3" class="node"><title>2</title>
<path fill="none" stroke="#d85656" stroke-width="2" d="M254,-180C254,-180 152,-180 152,-180 146,-180 140,-174 140,-168 140,-168 140,-156 140,-156 140,-150 146,-144 152,-144 152,-144 254,-144 254,-144 260,-144 266,-150 266,-156 266,-156 266,-168 266,-168 266,-174 260,-180 254,-180"/>
<text text-anchor="middle" x="203" y="-159.5" font-family="sans" font-size="10.00">calc16SAlphaDiversity</text>
</g>
<!-- 2&#45;&gt;0 -->
<g id="edge2" class="edge"><title>2&#45;&gt;0</title>
<path fill="none" stroke="grey" stroke-width="2" d="M157.969,-143.86C142.45,-135.527 126.776,-123.814 118,-108 110.236,-94.0098 108.175,-84.6279 118,-72 138.893,-45.1469 235.499,-29.7059 289.756,-23.0099"/>
<polygon fill="grey" stroke="grey" points="290.173,-26.485 299.687,-21.8235 289.343,-19.5345 290.173,-26.485"/>
</g>
<!-- 3 -->
<g id="node4" class="node"><title>3</title>
<path fill="none" stroke="#ced856" stroke-width="2" d="M393.25,-180C393.25,-180 296.75,-180 296.75,-180 290.75,-180 284.75,-174 284.75,-168 284.75,-168 284.75,-156 284.75,-156 284.75,-150 290.75,-144 296.75,-144 296.75,-144 393.25,-144 393.25,-144 399.25,-144 405.25,-150 405.25,-156 405.25,-156 405.25,-168 405.25,-168 405.25,-174 399.25,-180 393.25,-180"/>
<text text-anchor="middle" x="345" y="-159.5" font-family="sans" font-size="10.00">calc16SBetaDiversity</text>
</g>
<!-- 3&#45;&gt;0 -->
<g id="edge3" class="edge"><title>3&#45;&gt;0</title>
<path fill="none" stroke="grey" stroke-width="2" d="M305.727,-143.895C291.134,-135.371 276.155,-123.514 268,-108 260.555,-93.8376 261.484,-86.6129 268,-72 273.17,-60.4071 282.267,-50.2907 291.793,-42.0907"/>
<polygon fill="grey" stroke="grey" points="294.201,-44.6461 299.819,-35.6631 289.825,-39.1823 294.201,-44.6461"/>
</g>
<!-- 4 -->
<g id="node5" class="node"><title>4</title>
<path fill="none" stroke="#56d86b" stroke-width="2" d="M365,-108C365,-108 289,-108 289,-108 283,-108 277,-102 277,-96 277,-96 277,-84 277,-84 277,-78 283,-72 289,-72 289,-72 365,-72 365,-72 371,-72 377,-78 377,-84 377,-84 377,-96 377,-96 377,-102 371,-108 365,-108"/>
<text text-anchor="middle" x="327" y="-93" font-family="sans" font-size="10.00">calc16SNMDS</text>
<text text-anchor="middle" x="327" y="-82" font-family="sans" font-size="10.00">beta: sharedsobs</text>
</g>
<!-- 3&#45;&gt;4 -->
<g id="edge16" class="edge"><title>3&#45;&gt;4</title>
<path fill="none" stroke="grey" stroke-width="2" d="M340.551,-143.697C338.545,-135.898 336.131,-126.509 333.899,-117.829"/>
<polygon fill="grey" stroke="grey" points="337.278,-116.918 331.398,-108.104 330.499,-118.661 337.278,-116.918"/>
</g>
<!-- 5 -->
<g id="node6" class="node"><title>5</title>
<path fill="none" stroke="#56d86b" stroke-width="2" d="M466.25,-108C466.25,-108 407.75,-108 407.75,-108 401.75,-108 395.75,-102 395.75,-96 395.75,-96 395.75,-84 395.75,-84 395.75,-78 401.75,-72 407.75,-72 407.75,-72 466.25,-72 466.25,-72 472.25,-72 478.25,-78 478.25,-84 478.25,-84 478.25,-96 478.25,-96 478.25,-102 472.25,-108 466.25,-108"/>
<text text-anchor="middle" x="437" y="-93" font-family="sans" font-size="10.00">calc16SNMDS</text>
<text text-anchor="middle" x="437" y="-82" font-family="sans" font-size="10.00">beta: thetayc</text>
</g>
<!-- 3&#45;&gt;5 -->
<g id="edge17" class="edge"><title>3&#45;&gt;5</title>
<path fill="none" stroke="grey" stroke-width="2" d="M367.742,-143.697C379.44,-134.796 393.861,-123.823 406.51,-114.199"/>
<polygon fill="grey" stroke="grey" points="408.681,-116.945 414.52,-108.104 404.442,-111.374 408.681,-116.945"/>
</g>
<!-- 6 -->
<g id="node7" class="node"><title>6</title>
<path fill="none" stroke="#56d86b" stroke-width="2" d="M577.25,-108C577.25,-108 508.75,-108 508.75,-108 502.75,-108 496.75,-102 496.75,-96 496.75,-96 496.75,-84 496.75,-84 496.75,-78 502.75,-72 508.75,-72 508.75,-72 577.25,-72 577.25,-72 583.25,-72 589.25,-78 589.25,-84 589.25,-84 589.25,-96 589.25,-96 589.25,-102 583.25,-108 577.25,-108"/>
<text text-anchor="middle" x="543" y="-93" font-family="sans" font-size="10.00">calc16SNMDS</text>
<text text-anchor="middle" x="543" y="-82" font-family="sans" font-size="10.00">beta: braycurtis</text>
</g>
<!-- 3&#45;&gt;6 -->
<g id="edge18" class="edge"><title>3&#45;&gt;6</title>
<path fill="none" stroke="grey" stroke-width="2" d="M393.183,-143.966C421.465,-133.967 457.339,-121.284 486.891,-110.837"/>
<polygon fill="grey" stroke="grey" points="488.389,-114.019 496.651,-107.386 486.056,-107.42 488.389,-114.019"/>
</g>
<!-- 7 -->
<g id="node8" class="node"><title>7</title>
<path fill="none" stroke="#5682d8" stroke-width="2" d="M696,-108C696,-108 620,-108 620,-108 614,-108 608,-102 608,-96 608,-96 608,-84 608,-84 608,-78 614,-72 620,-72 620,-72 696,-72 696,-72 702,-72 708,-78 708,-84 708,-84 708,-96 708,-96 708,-102 702,-108 696,-108"/>
<text text-anchor="middle" x="658" y="-93" font-family="sans" font-size="10.00">calc16SPCoA</text>
<text text-anchor="middle" x="658" y="-82" font-family="sans" font-size="10.00">beta: sharedsobs</text>
</g>
<!-- 3&#45;&gt;7 -->
<g id="edge19" class="edge"><title>3&#45;&gt;7</title>
<path fill="none" stroke="grey" stroke-width="2" d="M405.331,-149.589C456.757,-139.569 532.526,-124.113 598,-108 598.102,-107.975 598.204,-107.95 598.306,-107.925"/>
<polygon fill="grey" stroke="grey" points="599.156,-111.32 607.979,-105.454 597.424,-104.538 599.156,-111.32"/>
</g>
<!-- 8 -->
<g id="node9" class="node"><title>8</title>
<path fill="none" stroke="#5682d8" stroke-width="2" d="M795.25,-108C795.25,-108 738.75,-108 738.75,-108 732.75,-108 726.75,-102 726.75,-96 726.75,-96 726.75,-84 726.75,-84 726.75,-78 732.75,-72 738.75,-72 738.75,-72 795.25,-72 795.25,-72 801.25,-72 807.25,-78 807.25,-84 807.25,-84 807.25,-96 807.25,-96 807.25,-102 801.25,-108 795.25,-108"/>
<text text-anchor="middle" x="767" y="-93" font-family="sans" font-size="10.00">calc16SPCoA</text>
<text text-anchor="middle" x="767" y="-82" font-family="sans" font-size="10.00">beta: thetayc</text>
</g>
<!-- 3&#45;&gt;8 -->
<g id="edge20" class="edge"><title>3&#45;&gt;8</title>
<path fill="none" stroke="grey" stroke-width="2" d="M405.567,-155.866C477.629,-148.983 601.553,-134.697 716.5,-107.846"/>
<polygon fill="grey" stroke="grey" points="717.605,-111.181 726.526,-105.466 715.988,-104.37 717.605,-111.181"/>
</g>
<!-- 9 -->
<g id="node10" class="node"><title>9</title>
<path fill="none" stroke="#5682d8" stroke-width="2" d="M208.25,-108C208.25,-108 139.75,-108 139.75,-108 133.75,-108 127.75,-102 127.75,-96 127.75,-96 127.75,-84 127.75,-84 127.75,-78 133.75,-72 139.75,-72 139.75,-72 208.25,-72 208.25,-72 214.25,-72 220.25,-78 220.25,-84 220.25,-84 220.25,-96 220.25,-96 220.25,-102 214.25,-108 208.25,-108"/>
<text text-anchor="middle" x="174" y="-93" font-family="sans" font-size="10.00">calc16SPCoA</text>
<text text-anchor="middle" x="174" y="-82" font-family="sans" font-size="10.00">beta: braycurtis</text>
</g>
<!-- 3&#45;&gt;9 -->
<g id="edge21" class="edge"><title>3&#45;&gt;9</title>
<path fill="none" stroke="grey" stroke-width="2" d="M303.169,-143.876C279.584,-134.222 249.94,-122.087 225.001,-111.878"/>
<polygon fill="grey" stroke="grey" points="226.276,-108.618 215.695,-108.068 223.624,-115.096 226.276,-108.618"/>
</g>
<!-- 4&#45;&gt;0 -->
<g id="edge4" class="edge"><title>4&#45;&gt;0</title>
<path fill="none" stroke="grey" stroke-width="2" d="M327,-71.6966C327,-63.9827 327,-54.7125 327,-46.1124"/>
<polygon fill="grey" stroke="grey" points="330.5,-46.1043 327,-36.1043 323.5,-46.1044 330.5,-46.1043"/>
</g>
<!-- 5&#45;&gt;0 -->
<g id="edge5" class="edge"><title>5&#45;&gt;0</title>
<path fill="none" stroke="grey" stroke-width="2" d="M410.091,-71.8761C395.842,-62.8083 378.154,-51.5523 362.764,-41.7592"/>
<polygon fill="grey" stroke="grey" points="364.328,-38.6057 354.012,-36.1898 360.57,-44.5114 364.328,-38.6057"/>
</g>
<!-- 6&#45;&gt;0 -->
<g id="edge6" class="edge"><title>6&#45;&gt;0</title>
<path fill="none" stroke="grey" stroke-width="2" d="M496.663,-73.9832C457.005,-61.1312 400.665,-42.8729 363.974,-30.9825"/>
<polygon fill="grey" stroke="grey" points="364.769,-27.5608 354.177,-27.8074 362.611,-34.2199 364.769,-27.5608"/>
</g>
<!-- 7&#45;&gt;0 -->
<g id="edge7" class="edge"><title>7&#45;&gt;0</title>
<path fill="none" stroke="grey" stroke-width="2" d="M607.991,-74.4956C604.618,-73.6208 601.264,-72.7802 598,-72 515.119,-52.1901 416.68,-34.3377 364.247,-25.2752"/>
<polygon fill="grey" stroke="grey" points="364.533,-21.7733 354.085,-23.5296 363.348,-28.6722 364.533,-21.7733"/>
</g>
<!-- 8&#45;&gt;0 -->
<g id="edge8" class="edge"><title>8&#45;&gt;0</title>
<path fill="none" stroke="grey" stroke-width="2" d="M726.532,-74.5119C723.327,-73.5885 720.123,-72.736 717,-72 589.527,-41.9643 434.325,-27.1953 364.364,-21.6688"/>
<polygon fill="grey" stroke="grey" points="364.519,-18.1704 354.279,-20.89 363.98,-25.1497 364.519,-18.1704"/>
</g>
<!-- 9&#45;&gt;0 -->
<g id="edge9" class="edge"><title>9&#45;&gt;0</title>
<path fill="none" stroke="grey" stroke-width="2" d="M211.428,-71.8761C235.483,-60.8706 266.583,-46.6416 290.462,-35.7169"/>
<polygon fill="grey" stroke="grey" points="291.918,-38.8994 299.556,-31.5563 289.006,-32.534 291.918,-38.8994"/>
</g>
<!-- 10 -->
<g id="node11" class="node"><title>10</title>
<path fill="none" stroke="#56b1d8" stroke-width="2" d="M255.25,-324C255.25,-324 190.75,-324 190.75,-324 184.75,-324 178.75,-318 178.75,-312 178.75,-312 178.75,-300 178.75,-300 178.75,-294 184.75,-288 190.75,-288 190.75,-288 255.25,-288 255.25,-288 261.25,-288 267.25,-294 267.25,-300 267.25,-300 267.25,-312 267.25,-312 267.25,-318 261.25,-324 255.25,-324"/>
<text text-anchor="middle" x="223" y="-303.5" font-family="sans" font-size="10.00">split16SShared</text>
</g>
<!-- 10&#45;&gt;1 -->
<g id="edge10" class="edge"><title>10&#45;&gt;1</title>
<path fill="none" stroke="grey" stroke-width="2" d="M184.121,-287.938C165.928,-278.842 144.653,-266.524 128,-252 106.986,-233.674 88.3918,-207.763 76.1562,-188.622"/>
<polygon fill="grey" stroke="grey" points="79.0991,-186.726 70.837,-180.094 73.1598,-190.431 79.0991,-186.726"/>
</g>
<!-- 10&#45;&gt;2 -->
<g id="edge12" class="edge"><title>10&#45;&gt;2</title>
<path fill="none" stroke="grey" stroke-width="2" d="M231.514,-287.982C239.416,-269.855 248.864,-240.463 241,-216 237.811,-206.08 232.004,-196.443 225.873,-188.167"/>
<polygon fill="grey" stroke="grey" points="228.418,-185.743 219.463,-180.081 222.933,-190.092 228.418,-185.743"/>
</g>
<!-- 10&#45;&gt;3 -->
<g id="edge14" class="edge"><title>10&#45;&gt;3</title>
<path fill="none" stroke="grey" stroke-width="2" d="M237.716,-287.871C259.058,-263.031 298.738,-216.846 323.4,-188.142"/>
<polygon fill="grey" stroke="grey" points="326.37,-190.055 330.232,-180.189 321.06,-185.493 326.37,-190.055"/>
</g>
<!-- 11 -->
<g id="node12" class="node"><title>11</title>
<path fill="none" stroke="#56d8c9" stroke-width="2" d="M220.25,-252C220.25,-252 149.75,-252 149.75,-252 143.75,-252 137.75,-246 137.75,-240 137.75,-240 137.75,-228 137.75,-228 137.75,-222 143.75,-216 149.75,-216 149.75,-216 220.25,-216 220.25,-216 226.25,-216 232.25,-222 232.25,-228 232.25,-228 232.25,-240 232.25,-240 232.25,-246 226.25,-252 220.25,-252"/>
<text text-anchor="middle" x="185" y="-231.5" font-family="sans" font-size="10.00">count16SShared</text>
</g>
<!-- 10&#45;&gt;11 -->
<g id="edge23" class="edge"><title>10&#45;&gt;11</title>
<path fill="none" stroke="grey" stroke-width="2" d="M213.607,-287.697C209.235,-279.644 203.943,-269.894 199.105,-260.982"/>
<polygon fill="grey" stroke="grey" points="202.132,-259.223 194.285,-252.104 195.98,-262.563 202.132,-259.223"/>
</g>
<!-- 11&#45;&gt;1 -->
<g id="edge11" class="edge"><title>11&#45;&gt;1</title>
<path fill="none" stroke="grey" stroke-width="2" d="M154.666,-215.876C138.303,-206.639 117.917,-195.131 100.346,-185.212"/>
<polygon fill="grey" stroke="grey" points="101.879,-182.058 91.4504,-180.19 98.4381,-188.154 101.879,-182.058"/>
</g>
<!-- 11&#45;&gt;2 -->
<g id="edge13" class="edge"><title>11&#45;&gt;2</title>
<path fill="none" stroke="grey" stroke-width="2" d="M189.449,-215.697C191.455,-207.898 193.869,-198.509 196.101,-189.829"/>
<polygon fill="grey" stroke="grey" points="199.501,-190.661 198.602,-180.104 192.722,-188.918 199.501,-190.661"/>
</g>
<!-- 11&#45;&gt;3 -->
<g id="edge15" class="edge"><title>11&#45;&gt;3</title>
<path fill="none" stroke="grey" stroke-width="2" d="M224.14,-215.876C246.013,-206.307 273.457,-194.3 296.662,-184.148"/>
<polygon fill="grey" stroke="grey" points="298.228,-187.283 305.987,-180.068 295.422,-180.87 298.228,-187.283"/>
</g>
<!-- 12 -->
<g id="node13" class="node"><title>12</title>
<path fill="none" stroke="#d88556" stroke-width="2" d="M259,-396C259,-396 187,-396 187,-396 181,-396 175,-390 175,-384 175,-384 175,-372 175,-372 175,-366 181,-360 187,-360 187,-360 259,-360 259,-360 265,-360 271,-366 271,-372 271,-372 271,-384 271,-384 271,-390 265,-396 259,-396"/>
<text text-anchor="middle" x="223" y="-375.5" font-family="sans" font-size="10.00">make16SShared</text>
</g>
<!-- 12&#45;&gt;10 -->
<g id="edge22" class="edge"><title>12&#45;&gt;10</title>
<path fill="none" stroke="grey" stroke-width="2" d="M223,-359.697C223,-351.983 223,-342.712 223,-334.112"/>
<polygon fill="grey" stroke="grey" points="226.5,-334.104 223,-324.104 219.5,-334.104 226.5,-334.104"/>
</g>
<!-- 13 -->
<g id="node14" class="node"><title>13</title>
<path fill="none" stroke="#d8b456" stroke-width="2" d="M263,-468C263,-468 183,-468 183,-468 177,-468 171,-462 171,-456 171,-456 171,-444 171,-444 171,-438 177,-432 183,-432 183,-432 263,-432 263,-432 269,-432 275,-438 275,-444 275,-444 275,-456 275,-456 275,-462 269,-468 263,-468"/>
<text text-anchor="middle" x="223" y="-447.5" font-family="sans" font-size="10.00">get16SReferences</text>
</g>
<!-- 13&#45;&gt;12 -->
<g id="edge24" class="edge"><title>13&#45;&gt;12</title>
<path fill="none" stroke="grey" stroke-width="2" d="M223,-431.697C223,-423.983 223,-414.712 223,-406.112"/>
<polygon fill="grey" stroke="grey" points="226.5,-406.104 223,-396.104 219.5,-406.104 226.5,-406.104"/>
</g>
</g>
</svg>
